<svg width="830" height="135" viewBox="0 0 830 135" fill="none" xmlns="http://www.w3.org/2000/svg">
<g clip-path="url(#clip0_383_6689)">
<rect width="830" height="135" rx="14" fill="#302216"/>
<rect width="830" height="135" rx="14" fill="#271D14" fill-opacity="0.4"/>
<rect width="830" height="135" rx="14" fill="url(#paint0_radial_383_6689)" fill-opacity="0.2"/>
<rect width="830" height="135" rx="14" fill="url(#paint1_radial_383_6689)" fill-opacity="0.2"/>
<path fill-rule="evenodd" clip-rule="evenodd" d="M39.0098 30.8346L28 30.835V25.123H39.0098V30.835H44.754V41.8771H39.0098V36.5471C36.093 36.5979 33.7442 38.9647 33.7442 41.8771H28C28 35.8103 32.9205 30.8862 39.0098 30.835V30.8346Z" fill="#FFCCA0"/>
<path d="M72.2699 25.368V42H68.5459V31.808H68.4059C68.3312 32.1813 68.2286 32.5547 68.0979 32.928C67.9672 33.3013 67.7992 33.712 67.5939 34.16L64.9619 39.62H61.4619L58.8299 34.16C58.6432 33.7493 58.4846 33.348 58.3539 32.956C58.2232 32.564 58.1112 32.1813 58.0179 31.808H57.8779V42H54.3219V25.368H58.2699L62.2459 33.712C62.4326 34.1227 62.6192 34.5613 62.8059 35.028C62.9926 35.476 63.1326 35.868 63.2259 36.204H63.3659C63.4592 35.868 63.5992 35.4667 63.7859 35C63.9726 34.5333 64.1592 34.104 64.3459 33.712L68.2939 25.368H72.2699ZM85.2319 36.708H77.3359C77.4479 37.212 77.6719 37.6507 78.0079 38.024C78.3626 38.3787 78.8106 38.6493 79.3519 38.836C79.9119 39.0227 80.5653 39.116 81.3119 39.116C81.9466 39.116 82.6279 39.032 83.3559 38.864C84.0839 38.6773 84.6813 38.444 85.1479 38.164L85.2879 41.216C84.8026 41.552 84.1493 41.8133 83.3279 42C82.5253 42.168 81.7693 42.252 81.0599 42.252C79.4733 42.252 78.1106 41.9907 76.9719 41.468C75.8519 40.9267 75.0026 40.1707 74.4239 39.2C73.8639 38.2293 73.5839 37.0907 73.5839 35.784C73.5839 34.496 73.8453 33.3853 74.3679 32.452C74.9093 31.5 75.6466 30.7627 76.5799 30.24C77.5319 29.6987 78.5959 29.428 79.7719 29.428C80.8546 29.428 81.8159 29.6427 82.6559 30.072C83.5146 30.5013 84.1773 31.1267 84.6439 31.948C85.1293 32.7507 85.3719 33.7213 85.3719 34.86C85.3719 35.1027 85.3533 35.4013 85.3159 35.756C85.2973 36.092 85.2693 36.4093 85.2319 36.708ZM79.7999 32.004C79.0719 32.004 78.4746 32.2467 78.0079 32.732C77.5599 33.2173 77.2893 33.8613 77.1959 34.664H82.0399C82.0399 34.6267 82.0399 34.5707 82.0399 34.496C82.0399 34.4027 82.0399 34.3373 82.0399 34.3C82.0399 33.6093 81.8346 33.0587 81.4239 32.648C81.0319 32.2187 80.4906 32.004 79.7999 32.004ZM99.2243 35.84C99.2243 37.072 98.9349 38.1733 98.3563 39.144C97.7963 40.1147 97.0123 40.88 96.0043 41.44C94.9963 41.9813 93.8483 42.252 92.5603 42.252C91.2723 42.252 90.1243 41.9813 89.1163 41.44C88.1083 40.88 87.3149 40.1147 86.7363 39.144C86.1763 38.1733 85.8963 37.072 85.8963 35.84C85.8963 34.5893 86.1763 33.488 86.7363 32.536C87.3149 31.5653 88.1083 30.8093 89.1163 30.268C90.1243 29.708 91.2723 29.428 92.5603 29.428C93.8483 29.428 94.9963 29.708 96.0043 30.268C97.0123 30.8093 97.7963 31.5653 98.3563 32.536C98.9349 33.488 99.2243 34.5893 99.2243 35.84ZM95.5283 35.84C95.5283 35.1867 95.3976 34.6173 95.1363 34.132C94.8749 33.628 94.5203 33.2453 94.0723 32.984C93.6243 32.704 93.1203 32.564 92.5603 32.564C92.0003 32.564 91.4963 32.704 91.0483 32.984C90.6003 33.2453 90.2456 33.628 89.9843 34.132C89.7229 34.6173 89.5923 35.1867 89.5923 35.84C89.5923 36.4933 89.7229 37.072 89.9843 37.576C90.2456 38.0613 90.6003 38.444 91.0483 38.724C91.5149 38.9853 92.0189 39.116 92.5603 39.116C93.1389 39.116 93.6523 38.9853 94.1003 38.724C94.5483 38.444 94.8936 38.0613 95.1363 37.576C95.3976 37.072 95.5283 36.4933 95.5283 35.84ZM119.319 29.68L115.679 42H111.871L110.415 37.66C110.154 36.764 109.939 36.0453 109.771 35.504C109.603 34.944 109.463 34.4307 109.351 33.964H109.211C109.118 34.4307 108.978 34.944 108.791 35.504C108.623 36.0453 108.408 36.764 108.147 37.66L106.691 42H102.883L99.2431 29.764L102.855 29.596L104.507 35.476C104.6 35.868 104.694 36.3347 104.787 36.876C104.899 37.3987 104.983 37.884 105.039 38.332H105.179C105.235 37.884 105.328 37.3987 105.459 36.876C105.59 36.3347 105.711 35.868 105.823 35.476L107.447 30.604H111.255L112.879 35.476C112.991 35.868 113.112 36.3347 113.243 36.876C113.374 37.3987 113.467 37.884 113.523 38.332H113.663C113.719 37.884 113.794 37.3987 113.887 36.876C113.999 36.3347 114.102 35.868 114.195 35.476L115.791 29.68H119.319ZM131.646 24.248V42H128.062V41.244C127.166 41.916 126.111 42.252 124.898 42.252C123.89 42.252 122.956 42 122.098 41.496C121.258 40.992 120.586 40.2733 120.082 39.34C119.578 38.388 119.326 37.268 119.326 35.98C119.326 34.6547 119.578 33.5067 120.082 32.536C120.604 31.5467 121.332 30.7813 122.266 30.24C123.218 29.6987 124.328 29.428 125.598 29.428C126.046 29.428 126.484 29.4653 126.914 29.54C127.343 29.6147 127.726 29.7267 128.062 29.876V24.416L131.646 24.248ZM128.062 32.872C127.838 32.7787 127.548 32.6947 127.194 32.62C126.839 32.5453 126.494 32.508 126.158 32.508C125.523 32.508 124.963 32.648 124.478 32.928C124.011 33.1893 123.647 33.572 123.386 34.076C123.143 34.58 123.022 35.1773 123.022 35.868C123.022 36.54 123.134 37.128 123.358 37.632C123.582 38.1173 123.908 38.5 124.338 38.78C124.786 39.0413 125.299 39.172 125.878 39.172C126.718 39.172 127.446 38.9573 128.062 38.528V32.872ZM137.016 24.248V42H133.432V24.416L137.016 24.248ZM149.747 36.708H141.851C141.963 37.212 142.187 37.6507 142.523 38.024C142.877 38.3787 143.325 38.6493 143.867 38.836C144.427 39.0227 145.08 39.116 145.827 39.116C146.461 39.116 147.143 39.032 147.871 38.864C148.599 38.6773 149.196 38.444 149.663 38.164L149.803 41.216C149.317 41.552 148.664 41.8133 147.843 42C147.04 42.168 146.284 42.252 145.575 42.252C143.988 42.252 142.625 41.9907 141.487 41.468C140.367 40.9267 139.517 40.1707 138.939 39.2C138.379 38.2293 138.099 37.0907 138.099 35.784C138.099 34.496 138.36 33.3853 138.883 32.452C139.424 31.5 140.161 30.7627 141.095 30.24C142.047 29.6987 143.111 29.428 144.287 29.428C145.369 29.428 146.331 29.6427 147.171 30.072C148.029 30.5013 148.692 31.1267 149.159 31.948C149.644 32.7507 149.887 33.7213 149.887 34.86C149.887 35.1027 149.868 35.4013 149.831 35.756C149.812 36.092 149.784 36.4093 149.747 36.708ZM144.315 32.004C143.587 32.004 142.989 32.2467 142.523 32.732C142.075 33.2173 141.804 33.8613 141.711 34.664H146.555C146.555 34.6267 146.555 34.5707 146.555 34.496C146.555 34.4027 146.555 34.3373 146.555 34.3C146.555 33.6093 146.349 33.0587 145.939 32.648C145.547 32.2187 145.005 32.004 144.315 32.004Z" fill="#FFCCA0"/>
<path d="M48.4377 78H43.5601L41.8427 73.0194H34.6637L32.9119 78H28.2748L35.6942 57.5966H41.0183L48.4377 78ZM40.6748 69.4127L39.0261 64.7756C38.8658 64.3176 38.7284 63.894 38.6139 63.5047C38.5223 63.0925 38.4307 62.6803 38.3391 62.2681H38.1673C38.0757 62.6803 37.9727 63.0925 37.8582 63.5047C37.7666 63.894 37.6407 64.3176 37.4804 64.7756L35.7972 69.4127H40.6748ZM71.6142 70.2714C71.6142 71.8057 71.2822 73.1797 70.6181 74.3933C69.9769 75.607 69.0839 76.5688 67.9389 77.2787C66.8168 77.9657 65.5116 78.3091 64.0231 78.3091C62.7407 78.3091 61.6988 78.103 60.8973 77.6909V84.3546H56.5006V62.9894L60.8973 62.7833V63.8825C61.424 63.4474 62.0079 63.1268 62.6491 62.9207C63.2903 62.6917 64.0231 62.5772 64.8475 62.5772C66.1069 62.5772 67.2405 62.8864 68.248 63.5047C69.2785 64.123 70.0914 65.0046 70.6868 66.1496C71.3051 67.2945 71.6142 68.6685 71.6142 70.2714ZM67.0802 70.4088C67.0802 69.5845 66.9428 68.8746 66.668 68.2792C66.3932 67.6609 65.981 67.1915 65.4314 66.8709C64.9047 66.5274 64.2406 66.3556 63.4392 66.3556C62.4545 66.3556 61.6072 66.619 60.8973 67.1457V74.1185C61.195 74.233 61.5385 74.3361 61.9278 74.4277C62.34 74.4964 62.7636 74.5307 63.1987 74.5307C64.0002 74.5307 64.6872 74.3704 65.2597 74.0499C65.8321 73.7064 66.2787 73.2255 66.5993 72.6072C66.9199 71.966 67.0802 71.2332 67.0802 70.4088ZM87.7519 62.7833V78H83.3552V76.7291C82.6453 77.2787 81.924 77.6794 81.1912 77.9313C80.4584 78.1832 79.6684 78.3091 78.8211 78.3091C77.264 78.3091 76.0045 77.8741 75.0427 77.0039C74.0809 76.1108 73.6001 74.7254 73.6001 72.8476V62.9894L77.9967 62.7833V71.9202C77.9967 72.8133 78.2143 73.4545 78.6494 73.8438C79.0845 74.233 79.6799 74.4277 80.4355 74.4277C80.9393 74.4277 81.4431 74.3475 81.9469 74.1872C82.4507 74.0041 82.9201 73.7751 83.3552 73.5003V62.9894L87.7519 62.7833ZM100.284 62.749L100.112 66.9739C99.9745 66.9052 99.7341 66.8365 99.3906 66.7678C99.07 66.6991 98.7609 66.6648 98.4632 66.6648C97.8449 66.6648 97.2381 66.7793 96.6427 67.0083C96.0702 67.2144 95.5435 67.5006 95.0626 67.867V78H90.6659V62.9894L95.0626 62.7833V64.5695C95.7267 63.8825 96.4022 63.3787 97.0892 63.0581C97.7991 62.7375 98.5319 62.5772 99.2876 62.5772C99.4479 62.5772 99.6196 62.5887 99.8028 62.6116C100.009 62.6345 100.169 62.6803 100.284 62.749ZM111.58 62.749L111.408 66.9739C111.271 66.9052 111.03 66.8365 110.687 66.7678C110.366 66.6991 110.057 66.6648 109.759 66.6648C109.141 66.6648 108.534 66.7793 107.939 67.0083C107.366 67.2144 106.84 67.5006 106.359 67.867V78H101.962V62.9894L106.359 62.7833V64.5695C107.023 63.8825 107.699 63.3787 108.386 63.0581C109.095 62.7375 109.828 62.5772 110.584 62.5772C110.744 62.5772 110.916 62.5887 111.099 62.6116C111.305 62.6345 111.465 62.6803 111.58 62.749ZM122.567 56.4631L122.395 60.2415C122.235 60.1728 122.018 60.127 121.743 60.1041C121.491 60.0812 121.25 60.0698 121.021 60.0698C120.197 60.0698 119.567 60.253 119.132 60.6193C118.697 60.9857 118.48 61.5926 118.48 62.4399V62.8864H122.224L121.915 66.6648H118.48V78H114.083V66.6648H112.022V62.8864H114.083V62.3712C114.083 60.356 114.667 58.8332 115.835 57.8027C117.003 56.7493 118.571 56.2227 120.541 56.2227C120.861 56.2227 121.216 56.2456 121.605 56.2914C121.995 56.3372 122.315 56.3944 122.567 56.4631ZM137.314 71.508H127.627C127.765 72.1263 128.039 72.6644 128.452 73.1224C128.887 73.5575 129.436 73.8896 130.1 74.1185C130.787 74.3475 131.589 74.462 132.505 74.462C133.283 74.462 134.119 74.359 135.012 74.1529C135.905 73.9239 136.638 73.6377 137.211 73.2942L137.382 77.0382C136.787 77.4504 135.985 77.771 134.978 78C133.993 78.2061 133.066 78.3091 132.196 78.3091C130.249 78.3091 128.578 77.9886 127.181 77.3474C125.807 76.6833 124.765 75.7559 124.055 74.5651C123.368 73.3743 123.024 71.9775 123.024 70.3745C123.024 68.7944 123.345 67.4319 123.986 66.287C124.65 65.1191 125.555 64.2146 126.7 63.5734C127.868 62.9093 129.173 62.5772 130.616 62.5772C131.944 62.5772 133.123 62.8406 134.154 63.3673C135.207 63.894 136.02 64.6611 136.592 65.6687C137.188 66.6533 137.485 67.8441 137.485 69.241C137.485 69.5387 137.462 69.9051 137.417 70.3401C137.394 70.7523 137.359 71.1416 137.314 71.508ZM130.65 65.7374C129.757 65.7374 129.024 66.0351 128.452 66.6304C127.902 67.2258 127.57 68.0159 127.455 69.0005H133.398C133.398 68.9547 133.398 68.886 133.398 68.7944C133.398 68.6799 133.398 68.5998 133.398 68.554C133.398 67.7067 133.146 67.0312 132.642 66.5274C132.161 66.0007 131.497 65.7374 130.65 65.7374ZM151.8 63.9169L150.838 67.9014C150.449 67.5121 149.933 67.1915 149.292 66.9396C148.651 66.6877 147.987 66.5617 147.3 66.5617C146.544 66.5617 145.857 66.722 145.239 67.0426C144.644 67.3403 144.174 67.7754 143.831 68.3479C143.51 68.9204 143.35 69.6074 143.35 70.4088C143.35 71.2332 143.521 71.9431 143.865 72.5385C144.208 73.1339 144.701 73.5804 145.342 73.8781C146.006 74.1758 146.773 74.3246 147.643 74.3246C148.422 74.3246 149.155 74.2101 149.842 73.9812C150.552 73.7522 151.181 73.4545 151.731 73.0881L151.903 77.0039C151.261 77.3932 150.529 77.7138 149.704 77.9657C148.88 78.1946 147.952 78.3091 146.922 78.3091C145.479 78.3091 144.14 78 142.903 77.3817C141.667 76.7634 140.67 75.8704 139.915 74.7025C139.182 73.5117 138.816 72.0805 138.816 70.4088C138.816 68.8975 139.171 67.5579 139.88 66.39C140.59 65.1992 141.552 64.2718 142.766 63.6077C143.979 62.9207 145.33 62.5772 146.819 62.5772C147.918 62.5772 148.88 62.7032 149.704 62.9551C150.552 63.1841 151.25 63.5047 151.8 63.9169ZM163.37 62.8864L163.061 66.6648H159.042V72.4011C159.042 73.1568 159.225 73.6949 159.592 74.0155C159.958 74.3132 160.496 74.462 161.206 74.462C161.595 74.462 161.962 74.4048 162.305 74.2903C162.672 74.1529 162.981 73.9926 163.233 73.8094L163.404 77.5191C162.603 78.0458 161.515 78.3091 160.141 78.3091C158.241 78.3091 156.855 77.8397 155.985 76.9008C155.115 75.962 154.68 74.6223 154.68 72.882V66.6648H152.619V62.8864H154.68V59.7263L159.042 58.7988V62.8864H163.37ZM190.777 78H185.9L184.182 73.0194H177.003L175.251 78H170.614L178.034 57.5966H183.358L190.777 78ZM183.014 69.4127L181.366 64.7756C181.205 64.3176 181.068 63.894 180.953 63.5047C180.862 63.0925 180.77 62.6803 180.679 62.2681H180.507C180.415 62.6803 180.312 63.0925 180.198 63.5047C180.106 63.894 179.98 64.3176 179.82 64.7756L178.137 69.4127H183.014ZM208.176 64.6038C208.176 66.1152 207.833 67.3976 207.146 68.4509C206.482 69.5043 205.509 70.2943 204.226 70.821C202.944 71.3477 201.398 71.6111 199.589 71.6111H197.185V78H192.616V57.5966H199.623C201.433 57.5966 202.967 57.8714 204.226 58.421C205.509 58.9706 206.482 59.7606 207.146 60.7911C207.833 61.8216 208.176 63.0925 208.176 64.6038ZM203.608 64.6038C203.608 63.8482 203.436 63.2299 203.093 62.749C202.772 62.2681 202.303 61.9132 201.684 61.6842C201.089 61.4552 200.368 61.3407 199.52 61.3407H197.185V67.867H199.52C200.368 67.867 201.089 67.7525 201.684 67.5235C202.303 67.2945 202.772 66.9396 203.093 66.4587C203.436 65.9778 203.608 65.3595 203.608 64.6038ZM215.223 57.5966V78H210.655V57.5966H215.223ZM248.45 62.8864L243.984 78H239.313L237.527 72.6759C237.206 71.5767 236.943 70.6951 236.737 70.031C236.531 69.344 236.359 68.7143 236.221 68.1418H236.05C235.935 68.7143 235.763 69.344 235.534 70.031C235.328 70.6951 235.065 71.5767 234.744 72.6759L232.958 78H228.287L223.821 62.9894L228.252 62.7833L230.279 69.9967C230.393 70.4775 230.508 71.05 230.622 71.7141C230.76 72.3553 230.863 72.9507 230.932 73.5003H231.103C231.172 72.9507 231.287 72.3553 231.447 71.7141C231.607 71.05 231.756 70.4775 231.893 69.9967L233.886 64.0199H238.557L240.549 69.9967C240.687 70.4775 240.836 71.05 240.996 71.7141C241.156 72.3553 241.271 72.9507 241.339 73.5003H241.511C241.58 72.9507 241.671 72.3553 241.786 71.7141C241.923 71.05 242.049 70.4775 242.164 69.9967L244.122 62.8864H248.45ZM259.79 62.749L259.618 66.9739C259.481 66.9052 259.24 66.8365 258.897 66.7678C258.576 66.6991 258.267 66.6648 257.969 66.6648C257.351 66.6648 256.744 66.7793 256.149 67.0083C255.576 67.2144 255.05 67.5006 254.569 67.867V78H250.172V62.9894L254.569 62.7833V64.5695C255.233 63.8825 255.908 63.3787 256.595 63.0581C257.305 62.7375 258.038 62.5772 258.794 62.5772C258.954 62.5772 259.126 62.5887 259.309 62.6116C259.515 62.6345 259.675 62.6803 259.79 62.749ZM274.452 78H270.296V76.8321C269.746 77.2672 269.082 77.6222 268.304 77.897C267.525 78.1717 266.666 78.3091 265.728 78.3091C264.056 78.3091 262.774 77.9084 261.88 77.1069C261.01 76.3054 260.575 75.1948 260.575 73.7751C260.575 72.2408 261.113 71.0844 262.19 70.3058C263.266 69.5043 264.72 69.1036 266.552 69.1036C267.216 69.1036 267.88 69.1608 268.544 69.2753C269.208 69.3898 269.746 69.5387 270.159 69.7219V68.8975C270.159 68.0044 269.872 67.3747 269.3 67.0083C268.75 66.619 267.88 66.4243 266.689 66.4243C265.842 66.4243 264.972 66.5274 264.079 66.7335C263.209 66.9396 262.51 67.2029 261.983 67.5235L261.812 63.6764C262.522 63.3329 263.357 63.0696 264.319 62.8864C265.304 62.6803 266.311 62.5772 267.342 62.5772C269.632 62.5772 271.384 63.0696 272.597 64.0543C273.834 65.016 274.452 66.5388 274.452 68.6227V78ZM270.159 74.4964V72.3324C269.838 72.1721 269.437 72.0462 268.956 71.9546C268.498 71.863 268.052 71.8172 267.617 71.8172C266.747 71.8172 266.082 71.9775 265.624 72.298C265.166 72.5957 264.938 73.0652 264.938 73.7064C264.938 74.3017 265.132 74.7368 265.521 75.0116C265.911 75.2635 266.483 75.3895 267.239 75.3895C267.766 75.3895 268.304 75.3093 268.853 75.149C269.403 74.9658 269.838 74.7483 270.159 74.4964ZM292.44 70.2714C292.44 71.8057 292.108 73.1797 291.444 74.3933C290.803 75.607 289.91 76.5688 288.765 77.2787C287.643 77.9657 286.337 78.3091 284.849 78.3091C283.567 78.3091 282.525 78.103 281.723 77.6909V84.3546H277.327V62.9894L281.723 62.7833V63.8825C282.25 63.4474 282.834 63.1268 283.475 62.9207C284.116 62.6917 284.849 62.5772 285.673 62.5772C286.933 62.5772 288.066 62.8864 289.074 63.5047C290.104 64.123 290.917 65.0046 291.513 66.1496C292.131 67.2945 292.44 68.6685 292.44 70.2714ZM287.906 70.4088C287.906 69.5845 287.769 68.8746 287.494 68.2792C287.219 67.6609 286.807 67.1915 286.257 66.8709C285.731 66.5274 285.067 66.3556 284.265 66.3556C283.28 66.3556 282.433 66.619 281.723 67.1457V74.1185C282.021 74.233 282.364 74.3361 282.754 74.4277C283.166 74.4964 283.59 74.5307 284.025 74.5307C284.826 74.5307 285.513 74.3704 286.086 74.0499C286.658 73.7064 287.105 73.2255 287.425 72.6072C287.746 71.966 287.906 71.2332 287.906 70.4088ZM309.54 70.2714C309.54 71.8057 309.208 73.1797 308.543 74.3933C307.902 75.607 307.009 76.5688 305.864 77.2787C304.742 77.9657 303.437 78.3091 301.948 78.3091C300.666 78.3091 299.624 78.103 298.823 77.6909V84.3546H294.426V62.9894L298.823 62.7833V63.8825C299.349 63.4474 299.933 63.1268 300.574 62.9207C301.216 62.6917 301.948 62.5772 302.773 62.5772C304.032 62.5772 305.166 62.8864 306.173 63.5047C307.204 64.123 308.017 65.0046 308.612 66.1496C309.23 67.2945 309.54 68.6685 309.54 70.2714ZM305.005 70.4088C305.005 69.5845 304.868 68.8746 304.593 68.2792C304.318 67.6609 303.906 67.1915 303.357 66.8709C302.83 66.5274 302.166 66.3556 301.364 66.3556C300.38 66.3556 299.533 66.619 298.823 67.1457V74.1185C299.12 74.233 299.464 74.3361 299.853 74.4277C300.265 74.4964 300.689 74.5307 301.124 74.5307C301.925 74.5307 302.612 74.3704 303.185 74.0499C303.757 73.7064 304.204 73.2255 304.525 72.6072C304.845 71.966 305.005 71.2332 305.005 70.4088ZM324.922 71.508H315.235C315.372 72.1263 315.647 72.6644 316.059 73.1224C316.495 73.5575 317.044 73.8896 317.708 74.1185C318.395 74.3475 319.197 74.462 320.113 74.462C320.891 74.462 321.727 74.359 322.62 74.1529C323.513 73.9239 324.246 73.6377 324.818 73.2942L324.99 77.0382C324.395 77.4504 323.593 77.771 322.586 78C321.601 78.2061 320.674 78.3091 319.803 78.3091C317.857 78.3091 316.185 77.9886 314.789 77.3474C313.415 76.6833 312.373 75.7559 311.663 74.5651C310.976 73.3743 310.632 71.9775 310.632 70.3745C310.632 68.7944 310.953 67.4319 311.594 66.287C312.258 65.1191 313.163 64.2146 314.308 63.5734C315.476 62.9093 316.781 62.5772 318.223 62.5772C319.552 62.5772 320.731 62.8406 321.761 63.3673C322.815 63.894 323.628 64.6611 324.2 65.6687C324.796 66.6533 325.093 67.8441 325.093 69.241C325.093 69.5387 325.07 69.9051 325.025 70.3401C325.002 70.7523 324.967 71.1416 324.922 71.508ZM318.258 65.7374C317.365 65.7374 316.632 66.0351 316.059 66.6304C315.51 67.2258 315.178 68.0159 315.063 69.0005H321.006C321.006 68.9547 321.006 68.886 321.006 68.7944C321.006 68.6799 321.006 68.5998 321.006 68.554C321.006 67.7067 320.754 67.0312 320.25 66.5274C319.769 66.0007 319.105 65.7374 318.258 65.7374ZM336.934 62.749L336.763 66.9739C336.625 66.9052 336.385 66.8365 336.041 66.7678C335.721 66.6991 335.411 66.6648 335.114 66.6648C334.496 66.6648 333.889 66.7793 333.293 67.0083C332.721 67.2144 332.194 67.5006 331.713 67.867V78H327.317V62.9894L331.713 62.7833V64.5695C332.377 63.8825 333.053 63.3787 333.74 63.0581C334.45 62.7375 335.183 62.5772 335.938 62.5772C336.098 62.5772 336.27 62.5887 336.453 62.6116C336.66 62.6345 336.82 62.6803 336.934 62.749ZM38.923 85.4631L38.7513 89.2415C38.591 89.1728 38.3734 89.127 38.0986 89.1041C37.8467 89.0812 37.6063 89.0698 37.3773 89.0698C36.5529 89.0698 35.9232 89.253 35.4881 89.6193C35.053 89.9857 34.8355 90.5926 34.8355 91.4399V91.8864H38.5795L38.2704 95.6648H34.8355V107H30.4388V95.6648H28.3778V91.8864H30.4388V91.3712C30.4388 89.356 31.0227 87.8332 32.1906 86.8027C33.3585 85.7493 34.9271 85.2227 36.8964 85.2227C37.217 85.2227 37.572 85.2456 37.9612 85.2914C38.3505 85.3372 38.6711 85.3944 38.923 85.4631ZM55.6969 99.4432C55.6969 100.955 55.342 102.306 54.6321 103.496C53.9451 104.687 52.9833 105.626 51.7468 106.313C50.5102 106.977 49.1019 107.309 47.5218 107.309C45.9418 107.309 44.5335 106.977 43.2969 106.313C42.0603 105.626 41.0871 104.687 40.3772 103.496C39.6902 102.306 39.3467 100.955 39.3467 99.4432C39.3467 97.9089 39.6902 96.5579 40.3772 95.39C41.0871 94.1992 42.0603 93.2718 43.2969 92.6077C44.5335 91.9207 45.9418 91.5772 47.5218 91.5772C49.1019 91.5772 50.5102 91.9207 51.7468 92.6077C52.9833 93.2718 53.9451 94.1992 54.6321 95.39C55.342 96.5579 55.6969 97.9089 55.6969 99.4432ZM51.1628 99.4432C51.1628 98.6417 51.0025 97.9433 50.682 97.3479C50.3614 96.7296 49.9263 96.2602 49.3767 95.9396C48.8271 95.5961 48.2088 95.4243 47.5218 95.4243C46.8349 95.4243 46.2166 95.5961 45.667 95.9396C45.1174 96.2602 44.6823 96.7296 44.3617 97.3479C44.0411 97.9433 43.8808 98.6417 43.8808 99.4432C43.8808 100.245 44.0411 100.955 44.3617 101.573C44.6823 102.168 45.1174 102.638 45.667 102.981C46.2395 103.302 46.8578 103.462 47.5218 103.462C48.2317 103.462 48.8615 103.302 49.411 102.981C49.9606 102.638 50.3843 102.168 50.682 101.573C51.0025 100.955 51.1628 100.245 51.1628 99.4432ZM67.2924 91.749L67.1207 95.9739C66.9833 95.9052 66.7428 95.8365 66.3994 95.7678C66.0788 95.6991 65.7696 95.6648 65.4719 95.6648C64.8536 95.6648 64.2468 95.7793 63.6514 96.0083C63.0789 96.2144 62.5523 96.5006 62.0714 96.867V107H57.6747V91.9894L62.0714 91.7833V93.5695C62.7355 92.8825 63.411 92.3787 64.098 92.0581C64.8078 91.7375 65.5406 91.5772 66.2963 91.5772C66.4566 91.5772 66.6283 91.5887 66.8115 91.6116C67.0176 91.6345 67.1779 91.6803 67.2924 91.749Z" fill="white"/>
<path d="M97.8309 86.5966V107H93.2625V94.4969H93.0908C92.9992 94.9549 92.8732 95.4129 92.7129 95.8709C92.5526 96.3289 92.3465 96.8327 92.0946 97.3822L88.8658 104.08H84.5722L81.3434 97.3822C81.1144 96.8785 80.9197 96.3861 80.7594 95.9052C80.5991 95.4243 80.4617 94.9549 80.3472 94.4969H80.1755V107H75.8132V86.5966H80.6564L85.534 96.8327C85.763 97.3364 85.9919 97.8746 86.2209 98.4471C86.4499 98.9967 86.6217 99.4775 86.7362 99.8897H86.9079C87.0224 99.4775 87.1942 98.9852 87.4232 98.4127C87.6522 97.8402 87.8811 97.3135 88.1101 96.8327L92.9534 86.5966H97.8309ZM116.48 99.4432C116.48 100.955 116.125 102.306 115.415 103.496C114.728 104.687 113.767 105.626 112.53 106.313C111.293 106.977 109.885 107.309 108.305 107.309C106.725 107.309 105.317 106.977 104.08 106.313C102.843 105.626 101.87 104.687 101.16 103.496C100.473 102.306 100.13 100.955 100.13 99.4432C100.13 97.9089 100.473 96.5579 101.16 95.39C101.87 94.1992 102.843 93.2718 104.08 92.6077C105.317 91.9207 106.725 91.5772 108.305 91.5772C109.885 91.5772 111.293 91.9207 112.53 92.6077C113.767 93.2718 114.728 94.1992 115.415 95.39C116.125 96.5579 116.48 97.9089 116.48 99.4432ZM111.946 99.4432C111.946 98.6417 111.786 97.9433 111.465 97.3479C111.145 96.7296 110.709 96.2602 110.16 95.9396C109.61 95.5961 108.992 95.4243 108.305 95.4243C107.618 95.4243 107 95.5961 106.45 95.9396C105.901 96.2602 105.465 96.7296 105.145 97.3479C104.824 97.9433 104.664 98.6417 104.664 99.4432C104.664 100.245 104.824 100.955 105.145 101.573C105.465 102.168 105.901 102.638 106.45 102.981C107.023 103.302 107.641 103.462 108.305 103.462C109.015 103.462 109.645 103.302 110.194 102.981C110.744 102.638 111.167 102.168 111.465 101.573C111.786 100.955 111.946 100.245 111.946 99.4432ZM133.915 99.4432C133.915 100.955 133.56 102.306 132.85 103.496C132.163 104.687 131.201 105.626 129.965 106.313C128.728 106.977 127.32 107.309 125.74 107.309C124.16 107.309 122.751 106.977 121.515 106.313C120.278 105.626 119.305 104.687 118.595 103.496C117.908 102.306 117.565 100.955 117.565 99.4432C117.565 97.9089 117.908 96.5579 118.595 95.39C119.305 94.1992 120.278 93.2718 121.515 92.6077C122.751 91.9207 124.16 91.5772 125.74 91.5772C127.32 91.5772 128.728 91.9207 129.965 92.6077C131.201 93.2718 132.163 94.1992 132.85 95.39C133.56 96.5579 133.915 97.9089 133.915 99.4432ZM129.381 99.4432C129.381 98.6417 129.221 97.9433 128.9 97.3479C128.579 96.7296 128.144 96.2602 127.595 95.9396C127.045 95.5961 126.427 95.4243 125.74 95.4243C125.053 95.4243 124.435 95.5961 123.885 95.9396C123.335 96.2602 122.9 96.7296 122.58 97.3479C122.259 97.9433 122.099 98.6417 122.099 99.4432C122.099 100.245 122.259 100.955 122.58 101.573C122.9 102.168 123.335 102.638 123.885 102.981C124.457 103.302 125.076 103.462 125.74 103.462C126.45 103.462 127.079 103.302 127.629 102.981C128.179 102.638 128.602 102.168 128.9 101.573C129.221 100.955 129.381 100.245 129.381 99.4432ZM150.113 85.2227V107H145.717V106.073C144.617 106.897 143.324 107.309 141.835 107.309C140.599 107.309 139.454 107 138.4 106.382C137.37 105.763 136.545 104.882 135.927 103.737C135.309 102.569 135 101.195 135 99.6149C135 97.9891 135.309 96.5808 135.927 95.39C136.568 94.1763 137.461 93.2375 138.606 92.5734C139.774 91.9093 141.137 91.5772 142.694 91.5772C143.243 91.5772 143.782 91.623 144.308 91.7146C144.835 91.8062 145.304 91.9436 145.717 92.1268V85.4288L150.113 85.2227ZM145.717 95.8022C145.442 95.6877 145.087 95.5846 144.652 95.493C144.217 95.4014 143.793 95.3556 143.381 95.3556C142.602 95.3556 141.915 95.5274 141.32 95.8709C140.747 96.1915 140.301 96.6609 139.98 97.2792C139.683 97.8975 139.534 98.6303 139.534 99.4775C139.534 100.302 139.671 101.023 139.946 101.642C140.221 102.237 140.621 102.706 141.148 103.05C141.698 103.37 142.327 103.531 143.037 103.531C144.068 103.531 144.961 103.267 145.717 102.741V95.8022ZM157.389 85.2227V107H152.992V85.4288L157.389 85.2227ZM173.693 100.508H164.006C164.144 101.126 164.419 101.664 164.831 102.122C165.266 102.558 165.815 102.89 166.48 103.119C167.166 103.348 167.968 103.462 168.884 103.462C169.663 103.462 170.498 103.359 171.391 103.153C172.285 102.924 173.017 102.638 173.59 102.294L173.762 106.038C173.166 106.45 172.365 106.771 171.357 107C170.372 107.206 169.445 107.309 168.575 107.309C166.628 107.309 164.957 106.989 163.56 106.347C162.186 105.683 161.144 104.756 160.434 103.565C159.747 102.374 159.404 100.977 159.404 99.3745C159.404 97.7944 159.724 96.4319 160.365 95.287C161.029 94.1191 161.934 93.2146 163.079 92.5734C164.247 91.9093 165.552 91.5772 166.995 91.5772C168.323 91.5772 169.502 91.8406 170.533 92.3673C171.586 92.894 172.399 93.6611 172.971 94.6687C173.567 95.6533 173.865 96.8441 173.865 98.241C173.865 98.5387 173.842 98.9051 173.796 99.3401C173.773 99.7523 173.739 100.142 173.693 100.508ZM167.029 94.7374C166.136 94.7374 165.403 95.0351 164.831 95.6304C164.281 96.2258 163.949 97.0159 163.835 98.0005H169.777C169.777 97.9547 169.777 97.886 169.777 97.7944C169.777 97.6799 169.777 97.5998 169.777 97.554C169.777 96.7067 169.525 96.0312 169.021 95.5274C168.54 95.0007 167.876 94.7374 167.029 94.7374Z" fill="#FFCCA0"/>
<g style="mix-blend-mode:overlay">
<path fill-rule="evenodd" clip-rule="evenodd" d="M477.798 -3.92365L379 -3.92364V-55L477.798 -55L477.798 -3.92365L529.11 -3.92364V94.7405L477.798 95.3454L477.798 47.5157C451.624 47.9714 430.547 69.211 430.547 95.3454H379C379 40.9038 423.155 -3.46485 477.798 -3.92365Z" fill="#FFCCA0"/>
<path fill-rule="evenodd" clip-rule="evenodd" d="M580.893 94.9329L679.691 94.9293V146.187H580.893V94.9293L529.111 94.7407V-3.92345L580.893 -3.92345V43.6713C607.067 43.2156 628.127 22.211 628.127 -3.92345H679.221C679.221 50.5181 635.536 94.4705 580.893 94.9293V94.9329Z" fill="#D86806" fill-opacity="0.5"/>
<path fill-rule="evenodd" clip-rule="evenodd" d="M778.489 47.0959L679.221 47.0959V-3.92334L778.489 -3.92334V47.0995L830.036 47.0995V146.187H778.489V98.3574C752.315 98.8132 731.238 120.053 731.238 146.187H679.691C679.691 91.7456 723.845 47.5583 778.489 47.0995V47.0959Z" fill="#FFCCA0" fill-opacity="0.7"/>
</g>
</g>
<rect x="0.5" y="0.5" width="829" height="134" rx="13.5" stroke="url(#paint2_linear_383_6689)" style="mix-blend-mode:overlay"/>
<rect x="0.5" y="0.5" width="829" height="134" rx="13.5" stroke="url(#paint3_linear_383_6689)" stroke-opacity="0.1"/>
<rect x="0.5" y="0.5" width="829" height="134" rx="13.5" stroke="white" stroke-opacity="0.1"/>
<defs>
<radialGradient id="paint0_radial_383_6689" cx="0" cy="0" r="1" gradientUnits="userSpaceOnUse" gradientTransform="translate(9.4458e-07 165.586) rotate(17.7974) scale(413.385 308.037)">
<stop offset="0.100613" stop-color="#FFCCA0" stop-opacity="0"/>
<stop offset="0.515" stop-color="#FF7700"/>
<stop offset="1" stop-color="#FF7700" stop-opacity="0.35"/>
</radialGradient>
<radialGradient id="paint1_radial_383_6689" cx="0" cy="0" r="1" gradientUnits="userSpaceOnUse" gradientTransform="translate(1075 -132) rotate(110.154) scale(458.578 1768.11)">
<stop stop-color="#B16A2B" stop-opacity="0"/>
<stop offset="0.285" stop-color="#B16A2B"/>
<stop offset="1" stop-color="#B16A2B" stop-opacity="0.184314"/>
</radialGradient>
<linearGradient id="paint2_linear_383_6689" x1="415" y1="0" x2="415" y2="135" gradientUnits="userSpaceOnUse">
<stop stop-color="white" stop-opacity="0.6"/>
<stop offset="0.5" stop-color="white" stop-opacity="0"/>
<stop offset="1" stop-color="white"/>
</linearGradient>
<linearGradient id="paint3_linear_383_6689" x1="415" y1="0" x2="415" y2="135" gradientUnits="userSpaceOnUse">
<stop stop-color="white" stop-opacity="0.6"/>
<stop offset="0.5" stop-color="white" stop-opacity="0"/>
<stop offset="1" stop-color="white"/>
</linearGradient>
<clipPath id="clip0_383_6689">
<rect width="830" height="135" rx="14" fill="white"/>
</clipPath>
</defs>
</svg>
